HIERARCHY
ROOT Hips
{
	OFFSET 0.000000 0.000000 0.000000
	CHANNELS 6 Xposition Yposition Zposition Zrotation Yrotation Xrotation 
	JOINT LHipJoint
	{
		OFFSET 0.000000 0.000000 0.000000
		CHANNELS 3 Zrotation Yrotation Xrotation
		JOINT LeftUpLeg
		{
			OFFSET 1.363060 -1.794630 0.839290
			CHANNELS 3 Zrotation Yrotation Xrotation
			JOINT LeftLeg
			{
				OFFSET 2.448110 -6.726130 0.000000
				CHANNELS 3 Zrotation Yrotation Xrotation
				JOINT LeftFoot
				{
					OFFSET 2.562200 -7.039590 0.000000
					CHANNELS 3 Zrotation Yrotation Xrotation
					JOINT LeftToeBase
					{
						OFFSET 0.157640 -0.433110 2.322550
						CHANNELS 3 Zrotation Yrotation Xrotation
						End Site
						{
							OFFSET 0.000000 0.000000 0.000000
						}
					}
				}
			}
		}
	}
	JOINT RHipJoint
	{
		OFFSET 0.000000 0.000000 0.000000
		CHANNELS 3 Zrotation Yrotation Xrotation
		JOINT RightUpLeg
		{
			OFFSET -1.305520 -1.794630 0.839290
			CHANNELS 3 Zrotation Yrotation Xrotation
			JOINT RightLeg
			{
				OFFSET -2.542530 -6.985550 0.000000
				CHANNELS 3 Zrotation Yrotation Xrotation
				JOINT RightFoot
				{
					OFFSET -2.568260 -7.056230 0.000000
					CHANNELS 3 Zrotation Yrotation Xrotation
					JOINT RightToeBase
					{
						OFFSET -0.164730 -0.452590 2.363150
						CHANNELS 3 Zrotation Yrotation Xrotation
						End Site
						{
							OFFSET 0.000000 0.000000 0.000000
						}
					}
				}
			}
		}
	}
	JOINT LowerBack
	{
		OFFSET 0.000000 0.000000 0.000000
		CHANNELS 3 Zrotation Yrotation Xrotation
		JOINT Spine
		{
			OFFSET 0.028270 2.035590 -0.193380
			CHANNELS 3 Zrotation Yrotation Xrotation
			JOINT Spine1
			{
				OFFSET 0.056720 2.048850 -0.042750
				CHANNELS 3 Zrotation Yrotation Xrotation
				JOINT Neck
				{
					OFFSET 0.000000 0.000000 0.000000
					CHANNELS 3 Zrotation Yrotation Xrotation
					JOINT Neck1
					{
						OFFSET -0.054170 1.746240 0.172020
						CHANNELS 3 Zrotation Yrotation Xrotation
						JOINT Head
						{
							OFFSET 0.104070 1.761360 -0.123970
							CHANNELS 3 Zrotation Yrotation Xrotation
							End Site
							{
								OFFSET 0.000000 0.000000 0.000000
							}
						}
					}
				}
				JOINT LeftShoulder
				{
					OFFSET 0.000000 0.000000 0.000000
					CHANNELS 3 Zrotation Yrotation Xrotation
					JOINT LeftArm
					{
						OFFSET 3.362410 1.200890 -0.311210
						CHANNELS 3 Zrotation Yrotation Xrotation
						JOINT LeftForeArm
						{
							OFFSET 4.983000 -0.000000 -0.000000
							CHANNELS 3 Zrotation Yrotation Xrotation
							JOINT LeftHand
							{
								OFFSET 3.483560 -0.000000 -0.000000
								CHANNELS 3 Zrotation Yrotation Xrotation
								JOINT LeftFingerBase
								{
									OFFSET 0.000000 0.000000 0.000000
									CHANNELS 3 Zrotation Yrotation Xrotation
									JOINT LeftHandIndex1
									{
										OFFSET 0.715260 -0.000000 -0.000000
										CHANNELS 3 Zrotation Yrotation Xrotation
										End Site
										{
											OFFSET 0.000000 0.000000 0.000000
										}
									}
								}
								JOINT LThumb
								{
									OFFSET 0.000000 0.000000 0.000000
									CHANNELS 3 Zrotation Yrotation Xrotation
									End Site
									{
										OFFSET 0.000000 0.000000 0.000000
									}
								}
							}
						}
					}
				}
				JOINT RightShoulder
				{
					OFFSET 0.000000 0.000000 0.000000
					CHANNELS 3 Zrotation Yrotation Xrotation
					JOINT RightArm
					{
						OFFSET -3.136600 1.374050 -0.404650
						CHANNELS 3 Zrotation Yrotation Xrotation
						JOINT RightForeArm
						{
							OFFSET -5.241900 -0.000000 -0.000000
							CHANNELS 3 Zrotation Yrotation Xrotation
							JOINT RightHand
							{
								OFFSET -3.444170 -0.000000 -0.000000
								CHANNELS 3 Zrotation Yrotation Xrotation
								JOINT RightFingerBase
								{
									OFFSET 0.000000 0.000000 0.000000
									CHANNELS 3 Zrotation Yrotation Xrotation
									JOINT RightHandIndex1
									{
										OFFSET -0.622530 -0.000000 -0.000000
										CHANNELS 3 Zrotation Yrotation Xrotation
										End Site
										{
											OFFSET 0.000000 0.000000 0.000000
										}
									}
								}
								JOINT RThumb
								{
									OFFSET 0.000000 0.000000 0.000000
									CHANNELS 3 Zrotation Yrotation Xrotation
									End Site
									{
										OFFSET 0.000000 0.000000 0.000000
									}
								}
							}
						}
					}
				}
			}
		}
	}
}
MOTION
Frames: 8
Frame Time: 0.008333
-0.470591 17.525601 9.280646 1.968484 11.403020 19.747198 -5.659593 -1.706970 2.122756 -11.816341 -2.064709 -3.727757 -1.199240 6.690449 18.858138 3.977432 -12.990091 1.056668 1.263658 -7.108221 -20.043526 1.823970 4.058821 -5.838590 10.845636 -0.310285 -44.040416 1.929160 -6.701369 14.586503 -1.066775 0.329693 4.815513 -1.416079 7.449868 -21.092474 0.782912 -2.895572 -8.880521 1.370960 -4.202554 -8.440717 -0.524186 -2.200707 0.048665 -2.189832 -1.448525 -7.246295 4.644515 -2.265115 9.775738 0.460971 -0.916410 2.722744 13.203794 6.692496 -1.367657 -94.755956 -18.917346 39.756859 30.995966 -47.307613 -13.836201 -0.129534 -0.313795 -12.300225 25.121398 -17.157148 -7.795049 -7.125000 0.000000 0.000000 -1.674995 11.493503 1.308099 -13.089249 -6.843261 1.448523 101.582656 -26.580317 -61.145712 -2.185523 8.512018 0.269693 -0.614268 0.841338 57.096061 -17.002205 -33.722971 9.060306 7.125000 0.000000 0.000000 20.895459 -63.727383 -9.698073
-0.471683 17.510190 9.429489 1.921803 11.334678 19.768089 -5.631394 -1.669727 2.152840 -11.722947 -2.312522 -3.365237 -1.186266 6.741016 19.061219 3.926949 -13.075316 1.938766 1.051373 -6.510263 -18.275777 1.818374 4.025308 -5.821479 10.770297 0.151574 -43.903381 1.882414 -6.910310 15.119741 -0.953384 -0.149790 5.551462 -1.938238 8.702605 -24.890223 0.953498 -2.882889 -8.882294 1.400243 -4.216701 -8.446180 -0.512356 -2.203351 0.035100 -2.214235 -1.378118 -7.328218 4.564169 -2.156670 9.703061 0.427113 -0.867029 2.701832 13.214484 6.691501 -1.359706 -94.788411 -18.704324 39.565204 31.594034 -47.724444 -14.235603 -0.122495 -0.306150 -12.764998 25.276045 -17.237955 -7.886547 -7.125000 0.000000 0.000000 -1.584786 11.374708 1.241496 -13.079267 -6.839413 1.436756 101.416295 -26.475980 -61.289182 -2.195113 8.486885 0.266172 -0.603041 0.843861 57.331108 -16.979658 -33.595323 9.021118 7.125000 0.000000 0.000000 20.797576 -63.609350 -9.593220
-0.469262 17.500074 9.589278 1.726791 11.235104 19.763162 -5.585632 -1.628397 2.190451 -11.529385 -2.445410 -2.978054 -1.170182 6.778000 19.240754 3.870189 -13.078457 2.846562 1.045344 -6.500697 -18.244690 1.802746 3.985700 -5.797774 11.190396 0.224903 -44.025988 1.822201 -7.178430 15.850006 -0.985192 -0.053115 6.409128 -2.423707 9.659171 -27.911948 1.314299 -2.803041 -9.041630 1.421114 -4.177643 -8.424903 -0.610796 -2.187065 0.148957 -2.173156 -1.350495 -7.432678 4.444223 -2.102847 9.660560 0.363160 -0.843610 2.690580 13.231796 6.695139 -1.348024 -94.813900 -18.490479 39.446021 32.091634 -48.069487 -14.570114 -0.116379 -0.302190 -13.211094 25.534789 -17.366097 -8.035821 -7.125000 0.000000 0.000000 -1.429324 11.192935 1.124549 -13.073089 -6.844762 1.432272 101.338853 -26.449642 -60.311471 -2.192034 8.596313 0.261764 -0.621215 0.829885 56.477676 -17.063293 -33.749184 9.105190 7.125000 0.000000 0.000000 20.847244 -63.768213 -9.694668
-0.466060 17.491605 9.751877 1.497882 11.122257 19.751691 -5.535385 -1.586415 2.229324 -11.318132 -2.541493 -2.588668 -1.150773 6.816141 19.423690 3.810091 -13.033494 3.700057 1.125381 -6.724368 -18.907050 1.782675 3.945013 -5.772629 11.721139 0.209607 -44.215289 1.757132 -7.461852 16.633812 -1.066135 0.241202 7.318339 -2.859960 10.464928 -30.495672 1.716540 -2.706213 -9.236042 1.440080 -4.124425 -8.398336 -0.731658 -2.165237 0.290786 -2.116695 -1.333755 -7.548743 4.312584 -2.062419 9.630854 0.290506 -0.826497 2.686622 13.250523 6.700454 -1.335439 -94.841959 -18.258255 39.340692 32.570273 -48.399439 -14.892569 -0.110431 -0.299027 -13.632701 25.830153 -17.499940 -8.200776 -7.125000 0.000000 0.000000 -1.250216 11.000277 0.988880 -13.067205 -6.852045 1.428772 101.278385 -26.439258 -59.084366 -2.186568 8.736484 0.256420 -0.645285 0.812175 55.375237 -17.166317 -33.944347 9.209512 7.125000 0.000000 0.000000 20.913651 -63.968303 -9.824283
-0.464326 17.485954 9.913948 1.320786 10.954867 19.742373 -5.486238 -1.548856 2.260696 -11.197324 -2.565273 -2.244514 -1.104561 6.904471 19.708528 3.731878 -12.704181 3.902715 1.548662 -7.796159 -22.126464 1.743159 3.909792 -5.750487 12.051403 0.331725 -44.392421 1.677792 -7.743574 17.439651 -1.266563 1.038079 8.438148 -2.873491 10.487422 -30.570006 2.030721 -2.615438 -9.365493 1.462166 -4.068439 -8.389863 -0.784397 -2.137061 0.375894 -2.078634 -1.313872 -7.725782 4.166590 -2.012636 9.653530 0.208908 -0.804296 2.733542 13.265885 6.710758 -1.323620 -94.916847 -17.832286 39.181184 33.126654 -48.768475 -15.267258 -0.103712 -0.294092 -13.845139 26.226033 -17.562685 -8.371998 -7.125000 0.000000 0.000000 -1.000735 10.867014 0.793818 -13.053857 -6.854329 1.415463 101.151179 -26.381682 -58.321555 -2.190940 8.829591 0.243561 -0.650315 0.800615 54.650086 -17.180243 -33.795574 9.186315 7.125000 0.000000 0.000000 20.747408 -63.836504 -9.679421
-0.461863 17.484534 10.075143 1.188074 10.789936 19.748420 -5.439728 -1.523269 2.276454 -11.127186 -2.620800 -1.969566 -1.046955 7.027027 20.082751 3.642996 -12.317174 4.044474 1.998841 -8.828831 -25.285693 1.697889 3.879080 -5.729146 12.225966 0.520629 -44.532996 1.595277 -8.015043 18.225271 -1.482204 1.923101 9.621685 -2.634774 10.027416 -29.110246 2.307509 -2.534906 -9.473559 1.481773 -4.019402 -8.383327 -0.833536 -2.112301 0.454728 -2.040425 -1.275990 -7.923746 4.030994 -1.939395 9.661390 0.132277 -0.770586 2.779221 13.281240 6.720738 -1.311425 -94.985173 -17.401756 39.019026 33.690304 -49.137274 -15.649573 -0.097188 -0.288381 -14.081036 26.551008 -17.594910 -8.504346 -7.125000 0.000000 0.000000 -0.795051 10.776527 0.632418 -13.045463 -6.855610 1.401178 101.032181 -26.237152 -57.960330 -2.205135 8.884068 0.235939 -0.652037 0.794413 54.335128 -17.228541 -33.745477 9.205385 7.125000 0.000000 0.000000 20.640751 -63.804407 -9.611731
-0.458204 17.490056 10.234903 1.128216 10.629041 19.779688 -5.397550 -1.517334 2.266582 -11.140223 -2.728442 -1.808221 -0.970646 7.205763 20.603699 3.536600 -11.835460 4.086267 2.493176 -9.797292 -28.346128 1.643175 3.855768 -5.709118 12.144946 0.819164 -44.613561 1.507550 -8.269684 18.977704 -1.722818 2.952812 10.909832 -1.981987 8.775382 -25.132254 2.522915 -2.471187 -9.546524 1.497309 -3.981775 -8.379968 -0.876763 -2.093149 0.523263 -2.001974 -1.208563 -8.156055 3.912467 -1.827647 9.644926 0.063800 -0.717984 2.822861 13.296584 6.730188 -1.298613 -95.042727 -16.963741 38.852519 34.265886 -49.505686 -16.044406 -0.090986 -0.281395 -14.355440 26.759592 -17.577039 -8.572881 -7.125000 0.000000 0.000000 -0.661260 10.756259 0.526275 -13.045201 -6.855243 1.385288 100.926657 -25.949886 -58.258309 -2.235455 8.875133 0.236915 -0.648331 0.797008 54.693503 -17.333261 -33.857360 9.293837 7.125000 0.000000 0.000000 20.631906 -63.935972 -9.670718
-0.455535 17.500105 10.393713 1.016149 10.440935 19.830183 -5.357183 -1.537819 2.237097 -11.095094 -2.871820 -1.844632 -0.886525 7.430693 21.320175 3.441334 -11.659043 5.317423 2.497845 -9.825162 -28.419959 1.604777 3.832351 -5.681196 12.051484 1.254003 -44.621739 1.417798 -8.519251 19.701746 -1.861487 3.595650 11.849930 -1.381038 7.298929 -20.664676 2.786555 -2.383253 -9.622696 1.516045 -3.923679 -8.389181 -0.922115 -2.058809 0.546202 -1.981035 -1.134605 -8.329855 3.797503 -1.708430 9.622124 0.002717 -0.662510 2.851634 13.308208 6.739533 -1.285379 -95.099310 -16.468217 38.718621 34.778250 -49.825679 -16.394661 -0.085178 -0.276108 -14.585387 27.029422 -17.584500 -8.675556 -7.125000 0.000000 0.000000 -0.489358 10.700240 0.389849 -13.041537 -6.850256 1.367892 100.838020 -25.701210 -58.355270 -2.270918 8.899039 0.238852 -0.650570 0.796176 54.925211 -17.427209 -34.105975 9.407461 7.125000 0.000000 0.000000 20.769725 -64.186944 -9.860401
